<?xml version="1.0" encoding="UTF-8"?>
<svg width="200" height="200" viewBox="0 0 200 200"
     xmlns="http://www.w3.org/2000/svg">

  <!-- Hair dryer body -->
  <ellipse cx="70" cy="100" rx="35" ry="20" fill="#dc2626"/>
  <rect x="95" y="90" width="50" height="20" rx="4" ry="4" fill="#b91c1c"/>
  <line x1="120" y1="100" x2="140" y2="100" stroke="#ffffff" stroke-width="3"/>

  <!-- Handle -->
  <rect x="60" y="110" width="10" height="40" fill="#374151" rx="3" ry="3"/>

  <!-- Scissors -->
  <circle cx="40" cy="150" r="8" fill="#ffffff" stroke="#dc2626" stroke-width="3"/>
  <circle cx="60" cy="150" r="8" fill="#ffffff" stroke="#dc2626" stroke-width="3"/>
  <path d="M48,158 l10,20" stroke="#374151" stroke-width="3"/>
  <path d="M62,158 l-10,20" stroke="#374151" stroke-width="3"/>

  <!-- Comb -->
  <rect x="140" y="140" width="40" height="6" fill="#ef4444" rx="2" ry="2"/>
  <g stroke="#ffffff" stroke-width="2">
    <line x1="145" y1="140" x2="145" y2="152"/>
    <line x1="152" y1="140" x2="152" y2="152"/>
    <line x1="159" y1="140" x2="159" y2="152"/>
    <line x1="166" y1="140" x2="166" y2="152"/>
    <line x1="173" y1="140" x2="173" y2="152"/>
  </g>

  <!-- Sparkles -->
  <g fill="#ffffff">
    <polygon points="30,30 32,36 38,38 32,40 30,46 28,40 22,38 28,36"/>
    <polygon points="160,50 162,54 168,56 162,58 160,62 158,58 152,56 158,54"/>
  </g>
</svg>
